<svg viewBox="0 0 12.62 20" id="shape-dual" xmlns="http://www.w3.org/2000/svg" xmlns:xlink= "http://www.w3.org/1999/xlink">
  <path class="a" d="M10.31.92H8.82V.79A.79.79,0,0,0,8,0H4.59A.79.79,0,0,0,3.8.79V.92H2.31A2.32,2.32,0,0,0,0,3.23V17.69A2.32,2.32,0,0,0,2.31,20h8a2.31,2.31,0,0,0,2.31-2.31V3.23A2.31,2.31,0,0,0,10.31.92Zm.6,16.77a.59.59,0,0,1-.6.59h-8a.58.58,0,0,1-.59-.59V3.23a.58.58,0,0,1,.59-.59h8a.59.59,0,0,1,.6.59Zm0,0"></path>
  <rect class="a" x="3.34" y="4.55" width="5.95" height="2.7"></rect>
  <rect class="a" x="3.34" y="9.11" width="5.95" height="2.7"></rect>
  <rect class="a" x="3.34" y="13.67" width="5.95" height="2.7"></rect>
</svg>