<svg viewBox="0 0 15 20" id="shape-gas" xmlns="http://www.w3.org/2000/svg" xmlns:xlink= "http://www.w3.org/1999/xlink">
  <path class="a" d="M15,11.71a11.77,11.77,0,0,0-2.85-6.5C11,3.68,10,2.36,10,.42A.41.41,0,0,0,9.77.05a.4.4,0,0,0-.43,0A10.61,10.61,0,0,0,5.43,5.73,18.81,18.81,0,0,0,5,10C3.3,9.59,2.92,7.05,2.91,7a.41.41,0,0,0-.21-.3.39.39,0,0,0-.38,0C2.23,6.75.13,7.82,0,12.07c0,.15,0,.29,0,.43A7.51,7.51,0,0,0,7.5,20h0A7.5,7.5,0,0,0,15,12.5C15,12.29,15,11.71,15,11.71ZM7.5,19.17A2.59,2.59,0,0,1,5,16.5v-.16A3.37,3.37,0,0,1,5.27,15a1.51,1.51,0,0,0,1.37,1,.41.41,0,0,0,.42-.41,8.23,8.23,0,0,1,.16-1.9,4,4,0,0,1,.84-1.6,5.36,5.36,0,0,0,.86,1.58A4.79,4.79,0,0,1,10,16.28c0,.07,0,.15,0,.22A2.59,2.59,0,0,1,7.5,19.17Z" transform="translate(0 0)"></path>
</svg>