<svg viewBox="0 0 10 20" id="shape-electricity" xmlns="http://www.w3.org/2000/svg" xmlns:xlink= "http://www.w3.org/1999/xlink">
  <path class="a" d="M.06,7.06a1.26,1.26,0,0,1,.8-1.58L8.35,3a1.25,1.25,0,1,1,.8,2.37l-7.5,2.5a1.16,1.16,0,0,1-.4.07A1.26,1.26,0,0,1,.06,7.06Z"></path>
  <path class="a" d="M1.25,4.17a1.16,1.16,0,0,0,.4-.07l5-1.66A1.26,1.26,0,0,0,7.44.86,1.24,1.24,0,0,0,5.85.07l-5,1.66a1.25,1.25,0,0,0,.39,2.44Z"></path>
  <path class="a" d="M2.51,13.12H5a1.36,1.36,0,0,0,0-.45,4.45,4.45,0,0,0-.88-1.89L9.15,9.1a1.25,1.25,0,1,0-.8-2.37L.86,9.23A1.26,1.26,0,0,0,0,10.5a1.25,1.25,0,0,0,1,1.14,1.92,1.92,0,0,1,1.5,1.48Z"></path>
  <path class="a" d="M8.75,10.23A3.75,3.75,0,0,0,5,13.75H2.5A1.25,1.25,0,0,0,1.25,15v1.25A1.25,1.25,0,0,0,2.5,17.5v1.25A1.25,1.25,0,0,0,3.75,20h2.5A1.25,1.25,0,0,0,7.5,18.75V17.5a1.25,1.25,0,0,0,1.25-1.25V15a1.25,1.25,0,0,0-1.2-1.24,1.23,1.23,0,0,1,1.2-1,1.25,1.25,0,0,0,0-2.5Z"></path>
</svg>