<svg id="shape-mobile" viewBox="0 0 12 20" xmlns="http://www.w3.org/2000/svg" xmlns:xlink= "http://www.w3.org/1999/xlink">
  <path class="a" d="M11.41.59A2,2,0,0,0,10,0H2A2,2,0,0,0,.59.59,2,2,0,0,0,0,2V18a2,2,0,0,0,.59,1.41A2,2,0,0,0,2,20h8a2,2,0,0,0,2-2V2A2,2,0,0,0,11.41.59ZM4.75,2h2.5a.22.22,0,0,1,.25.25.22.22,0,0,1-.25.25H4.75a.22.22,0,0,1-.25-.25A.22.22,0,0,1,4.75,2ZM6.88,18.88a1.23,1.23,0,0,1-1.76,0A1.25,1.25,0,0,1,6,16.75a1.24,1.24,0,0,1,.88,2.13ZM10.5,15.5a.47.47,0,0,1-.15.35A.49.49,0,0,1,10,16H2a.47.47,0,0,1-.35-.15.47.47,0,0,1-.15-.35V4.5a.47.47,0,0,1,.15-.35A.47.47,0,0,1,2,4h8a.51.51,0,0,1,.5.5Z"></path>
</svg>