<svg viewBox="0 0 20 20" id="shape-internet" xmlns="http://www.w3.org/2000/svg" xmlns:xlink= "http://www.w3.org/1999/xlink">
  <path class="a" d="M19.07,3.23,20,2.29a7.88,7.88,0,0,0-11.11,0l.92.93a6.55,6.55,0,0,1,9.26,0Z"></path>
  <path class="a" d="M18.15,4.07a5.25,5.25,0,0,0-7.41,0l.92.92a3.94,3.94,0,0,1,2.78-1.14A3.89,3.89,0,0,1,17.22,5l.93-.93Z"></path>
  <path class="a" d="M17.78,11.11H15.56V6.67H13.33v4.44H2.22A2.22,2.22,0,0,0,0,13.33v4.45A2.21,2.21,0,0,0,2.22,20H17.78A2.21,2.21,0,0,0,20,17.78V13.33A2.22,2.22,0,0,0,17.78,11.11ZM5.56,16.67H3.33V14.44H5.56Zm3.88,0H7.22V14.44H9.44Zm3.89,0H11.11V14.44h2.22Z"></path>
</svg>