<svg xmlns="http://www.w3.org/2000/svg" xmlns:xlink="http://www.w3.org/1999/xlink" version="1.1" id="instagram" x="0px" y="0px" viewBox="216.52 367.48 60 60" style="enable-background:new 216.52 367.48 60 60;" xml:space="preserve">
  <path style="fill:#FFFFFF;" d="M258.64,367.48h-24.25c-9.86,0-17.87,8.02-17.87,17.87v24.25c0,9.86,8.02,17.87,17.87,17.87h24.25  c9.86,0,17.87-8.02,17.87-17.87v-24.25C276.52,375.5,268.5,367.48,258.64,367.48z M258.64,421.45h-24.25  c-6.54,0-11.84-5.3-11.84-11.84v-24.25c0-6.54,5.3-11.84,11.84-11.84h24.25c6.54,0,11.84,5.3,11.84,11.84l0,24.25  C270.48,416.15,265.18,421.45,258.64,421.45z"/>
  <path style="fill:#FFFFFF;" d="M246.52,381.96c-8.56,0-15.52,6.96-15.52,15.52c0,8.56,6.96,15.52,15.52,15.52  s15.52-6.96,15.52-15.52C262.04,388.93,255.07,381.96,246.52,381.96z M246.52,406.97c-5.24,0-9.48-4.25-9.48-9.48  s4.25-9.48,9.48-9.48c5.24,0,9.48,4.25,9.48,9.48C256,402.72,251.75,406.97,246.52,406.97z"/>
  <circle style="fill:#FFFFFF;" cx="262.07" cy="382.08" r="3.72"/>
</svg>